<?xml version="1.0" encoding="UTF-8"?>
<svg id="Layer_2" data-name="Layer 2" xmlns="http://www.w3.org/2000/svg" viewBox="0 0 70 71.84">
  <defs>
    <style>
      .cls-1 {
        fill: #f7f0f1;
      }
    </style>
  </defs>
  <g id="Layer_1-2" data-name="Layer 1">
    <g>
      <path class="cls-1" d="M70,1v69.83c0,.6-.52,1.07-1.12.99-4.55-.57-21.38-4.77-21.38-35.91,0-31.14,16.83-35.34,21.38-35.91.6-.07,1.12.39,1.12.99Z"/>
      <path class="cls-1" d="M39.5,66.31V5.52c0-.62-.55-1.09-1.16-.99-3.99.64-16.84,4.77-16.84,31.38s12.85,30.74,16.84,31.38c.61.1,1.16-.37,1.16-.99Z"/>
      <path class="cls-1" d="M13.5,61.77V10.07c0-.64-.59-1.12-1.21-.98C8.97,9.84,0,13.91,0,35.92c0,22.01,8.97,26.08,12.29,26.83.62.14,1.21-.34,1.21-.98Z"/>
    </g>
  </g>
</svg>