<?xml version="1.0" encoding="UTF-8"?>
<svg id="Layer_2" data-name="Layer 2" xmlns="http://www.w3.org/2000/svg" viewBox="0 0 721.1 124">
  <g id="Layer_1-2" data-name="Layer 1">
    <g>
      <path d="M277.15,88h22.05c1.93,0,3.58.68,4.95,2.02,1.37,1.35,2.05,2.99,2.05,4.93v29.05h-6.65v-12.1h-22.75v12.1h-6.6v-29.05c0-1.93.67-3.58,2.02-4.93,1.35-1.35,2.99-2.02,4.92-2.02ZM276.8,105.3h22.75v-10.35c0-.23-.12-.35-.35-.35h-22.05c-.23,0-.35.12-.35.35v10.35Z"/>
      <path d="M343.55,117.05v-29.05h6.65v29.05c0,1.93-.68,3.58-2.05,4.92-1.37,1.35-3,2.03-4.9,2.03h-22.1c-1.93,0-3.57-.68-4.92-2.03-1.35-1.35-2.03-2.99-2.03-4.92v-29.05h6.6v29.05c0,.23.12.35.35.35h22.1c.2,0,.3-.12.3-.35Z"/>
      <path d="M358.2,88h29c1.93,0,3.58.68,4.95,2.02,1.37,1.35,2.05,2.99,2.05,4.93v22.1c0,1.93-.68,3.58-2.05,4.92-1.37,1.35-3.02,2.03-4.95,2.03h-29v-36ZM387.55,117.05v-22.1c0-.23-.12-.35-.35-.35h-22.05c-.23,0-.35.12-.35.35v22.1c0,.23.12.35.35.35h22.05c.23,0,.35-.12.35-.35Z"/>
      <path d="M402.2,124v-36h6.6v36h-6.6Z"/>
      <path d="M423.76,88h22.1c1.9,0,3.53.68,4.9,2.02,1.37,1.35,2.05,2.99,2.05,4.93v22.1c0,1.93-.68,3.58-2.05,4.92-1.37,1.35-3,2.03-4.9,2.03h-22.1c-1.93,0-3.57-.68-4.92-2.03-1.35-1.35-2.03-2.99-2.03-4.92v-22.1c0-1.93.68-3.58,2.03-4.93,1.35-1.35,2.99-2.02,4.92-2.02ZM423.76,117.4h22.1c.2,0,.3-.12.3-.35v-22.1c0-.23-.1-.35-.3-.35h-22.1c-.23,0-.35.12-.35.35v22.1c0,.23.12.35.35.35Z"/>
      <path d="M651.1,1.08v69.83c0,.6.52,1.07,1.12.99,4.55-.57,21.38-4.77,21.38-35.91S656.77.66,652.22.09c-.6-.07-1.12.39-1.12.99Z"/>
      <path d="M681.6,66.4V5.6c0-.62.55-1.09,1.16-.99,3.99.64,16.84,4.77,16.84,31.38s-12.85,30.74-16.84,31.38c-.61.1-1.16-.37-1.16-.99Z"/>
      <path d="M707.6,61.85V10.15c0-.64.59-1.12,1.21-.98,3.31.75,12.29,4.82,12.29,26.83s-8.97,26.08-12.29,26.83c-.62.14-1.21-.34-1.21-.98Z"/>
      <path d="M70,1.08v69.83c0,.6-.52,1.07-1.12.99-4.55-.57-21.38-4.77-21.38-35.91,0-31.14,16.83-35.34,21.38-35.91.6-.07,1.12.39,1.12.99Z"/>
      <path d="M39.5,66.4V5.22c0-.4-.35-.71-.74-.67-3.39.41-17.26,3.79-17.26,31.44,0,26.62,12.85,30.74,16.84,31.38.61.1,1.16-.37,1.16-.99Z"/>
      <path d="M13.5,61.85V10.15c0-.64-.59-1.12-1.21-.98C8.97,9.92,0,13.99,0,36c0,22.01,8.97,26.08,12.29,26.83.62.14,1.21-.34,1.21-.98Z"/>
      <path d="M91.9,0h44.2c3.8,0,7.07,1.35,9.8,4.05,2.73,2.7,4.1,5.98,4.1,9.85v44.2c0,3.87-1.37,7.15-4.1,9.85-2.73,2.7-6,4.05-9.8,4.05h-44.2c-3.87,0-7.15-1.35-9.85-4.05-2.7-2.7-4.05-5.98-4.05-9.85V13.9c0-3.87,1.35-7.15,4.05-9.85s5.98-4.05,9.85-4.05ZM91.9,58.8h44.2c.4,0,.6-.23.6-.7V13.9c0-.47-.2-.7-.6-.7h-44.2c-.47,0-.7.23-.7.7v44.2c0,.47.23.7.7.7Z"/>
      <path d="M251.5,13.9v19.4c0,3.8-1.37,7.07-4.1,9.8s-6.03,4.1-9.9,4.1h-3.9l17.9,21.3v3.4h-14.4l-20.8-24.7h-23.6v24.7h-13.2V0h58c3.87,0,7.17,1.37,9.9,4.1,2.73,2.73,4.1,6,4.1,9.8ZM193.4,34h44.1c.47,0,.7-.23.7-.7V13.9c0-.47-.23-.7-.7-.7h-44.1c-.47,0-.7.23-.7.7v19.4c0,.47.23.7.7.7Z"/>
      <path d="M273.4,0h44.2c3.8,0,7.07,1.35,9.8,4.05,2.73,2.7,4.1,5.98,4.1,9.85v44.2c0,3.87-1.37,7.15-4.1,9.85-2.73,2.7-6,4.05-9.8,4.05h-44.2c-3.87,0-7.15-1.35-9.85-4.05-2.7-2.7-4.05-5.98-4.05-9.85V13.9c0-3.87,1.35-7.15,4.05-9.85s5.98-4.05,9.85-4.05ZM273.4,58.8h44.2c.4,0,.6-.23.6-.7V13.9c0-.47-.2-.7-.6-.7h-44.2c-.47,0-.7.23-.7.7v44.2c0,.47.23.7.7.7Z"/>
      <path d="M398.2,58.1V0h13.3v58.1c0,3.87-1.37,7.15-4.1,9.85-2.73,2.7-6,4.05-9.8,4.05h-44.2c-3.87,0-7.15-1.35-9.85-4.05-2.7-2.7-4.05-5.98-4.05-9.85V0h13.2v58.1c0,.47.23.7.7.7h44.2c.4,0,.6-.23.6-.7Z"/>
      <path d="M491.5,13.9v19.4c0,3.8-1.37,7.07-4.1,9.8s-6.03,4.1-9.9,4.1h-3.9l17.9,21.3v3.4h-14.4l-20.8-24.7h-23.6v24.7h-13.2V0h58c3.87,0,7.17,1.37,9.9,4.1,2.73,2.73,4.1,6,4.1,9.8ZM433.4,34h44.1c.47,0,.7-.23.7-.7V13.9c0-.47-.23-.7-.7-.7h-44.1c-.47,0-.7.23-.7.7v19.4c0,.47.23.7.7.7Z"/>
      <path d="M554.4,0h14.5v3.5l-27.2,32.5,27.2,32.5v3.5h-14.5l-24.6-29.4h-17v29.4h-13.3V0h13.3v29.4h17l24.6-29.4Z"/>
      <path d="M643.1,0v13.2h-52.9v16.2h42.6v13.2h-42.6v16.2h52.9v13.2h-66.2V0h66.2Z"/>
      <path d="M158.68,0h12.14c.38,0,.68.3.68.68v11.66c0,3.59-1.29,6.75-3.86,9.49-2.39,2.54-5.33,4.21-8.81,5-.42.1-.83-.24-.83-.67V.68c0-.38.3-.68.68-.68Z"/>
    </g>
  </g>
</svg>