<?xml version="1.0" encoding="UTF-8"?>
<svg id="Layer_2" data-name="Layer 2" xmlns="http://www.w3.org/2000/svg" viewBox="0 0 721.1 72">
  <defs>
    <style>
      .cls-1 {
        fill: #f7f0f1;
      }
    </style>
  </defs>
  <g id="Layer_1-2" data-name="Layer 1">
    <g>
      <path class="cls-1" d="M651.1,1.08v69.83c0,.6.52,1.07,1.12.99,4.55-.57,21.38-4.77,21.38-35.91S656.77.66,652.22.09c-.6-.07-1.12.39-1.12.99Z"/>
      <path class="cls-1" d="M681.6,66.4V5.6c0-.62.55-1.09,1.16-.99,3.99.64,16.84,4.77,16.84,31.38s-12.85,30.74-16.84,31.38c-.61.1-1.16-.37-1.16-.99Z"/>
      <path class="cls-1" d="M707.6,61.85V10.15c0-.64.59-1.12,1.21-.98,3.31.75,12.29,4.82,12.29,26.83s-8.97,26.08-12.29,26.83c-.62.14-1.21-.34-1.21-.98Z"/>
      <path class="cls-1" d="M70,1.08v69.83c0,.6-.52,1.07-1.12.99-4.55-.57-21.38-4.77-21.38-35.91,0-31.14,16.83-35.34,21.38-35.91.6-.07,1.12.39,1.12.99Z"/>
      <path class="cls-1" d="M39.5,66.4V5.22c0-.4-.35-.71-.74-.67-3.39.41-17.26,3.79-17.26,31.44,0,26.62,12.85,30.74,16.84,31.38.61.1,1.16-.37,1.16-.99Z"/>
      <path class="cls-1" d="M13.5,61.85V10.15c0-.64-.59-1.12-1.21-.98C8.97,9.92,0,13.99,0,36c0,22.01,8.97,26.08,12.29,26.83.62.14,1.21-.34,1.21-.98Z"/>
      <path class="cls-1" d="M91.9,0h44.2c3.8,0,7.07,1.35,9.8,4.05,2.73,2.7,4.1,5.98,4.1,9.85v44.2c0,3.87-1.37,7.15-4.1,9.85-2.73,2.7-6,4.05-9.8,4.05h-44.2c-3.87,0-7.15-1.35-9.85-4.05-2.7-2.7-4.05-5.98-4.05-9.85V13.9c0-3.87,1.35-7.15,4.05-9.85s5.98-4.05,9.85-4.05ZM91.9,58.8h44.2c.4,0,.6-.23.6-.7V13.9c0-.47-.2-.7-.6-.7h-44.2c-.47,0-.7.23-.7.7v44.2c0,.47.23.7.7.7Z"/>
      <path class="cls-1" d="M251.5,13.9v19.4c0,3.8-1.37,7.07-4.1,9.8s-6.03,4.1-9.9,4.1h-3.9l17.9,21.3v3.4h-14.4l-20.8-24.7h-23.6v24.7h-13.2V0h58c3.87,0,7.17,1.37,9.9,4.1,2.73,2.73,4.1,6,4.1,9.8ZM193.4,34h44.1c.47,0,.7-.23.7-.7V13.9c0-.47-.23-.7-.7-.7h-44.1c-.47,0-.7.23-.7.7v19.4c0,.47.23.7.7.7Z"/>
      <path class="cls-1" d="M273.4,0h44.2c3.8,0,7.07,1.35,9.8,4.05,2.73,2.7,4.1,5.98,4.1,9.85v44.2c0,3.87-1.37,7.15-4.1,9.85-2.73,2.7-6,4.05-9.8,4.05h-44.2c-3.87,0-7.15-1.35-9.85-4.05-2.7-2.7-4.05-5.98-4.05-9.85V13.9c0-3.87,1.35-7.15,4.05-9.85s5.98-4.05,9.85-4.05ZM273.4,58.8h44.2c.4,0,.6-.23.6-.7V13.9c0-.47-.2-.7-.6-.7h-44.2c-.47,0-.7.23-.7.7v44.2c0,.47.23.7.7.7Z"/>
      <path class="cls-1" d="M398.2,58.1V0h13.3v58.1c0,3.87-1.37,7.15-4.1,9.85-2.73,2.7-6,4.05-9.8,4.05h-44.2c-3.87,0-7.15-1.35-9.85-4.05-2.7-2.7-4.05-5.98-4.05-9.85V0h13.2v58.1c0,.47.23.7.7.7h44.2c.4,0,.6-.23.6-.7Z"/>
      <path class="cls-1" d="M491.5,13.9v19.4c0,3.8-1.37,7.07-4.1,9.8s-6.03,4.1-9.9,4.1h-3.9l17.9,21.3v3.4h-14.4l-20.8-24.7h-23.6v24.7h-13.2V0h58c3.87,0,7.17,1.37,9.9,4.1,2.73,2.73,4.1,6,4.1,9.8ZM433.4,34h44.1c.47,0,.7-.23.7-.7V13.9c0-.47-.23-.7-.7-.7h-44.1c-.47,0-.7.23-.7.7v19.4c0,.47.23.7.7.7Z"/>
      <path class="cls-1" d="M554.4,0h14.5v3.5l-27.2,32.5,27.2,32.5v3.5h-14.5l-24.6-29.4h-17v29.4h-13.3V0h13.3v29.4h17l24.6-29.4Z"/>
      <path class="cls-1" d="M643.1,0v13.2h-52.9v16.2h42.6v13.2h-42.6v16.2h52.9v13.2h-66.2V0h66.2Z"/>
      <path class="cls-1" d="M158.68,0h12.14c.38,0,.68.3.68.68v11.66c0,3.59-1.29,6.75-3.86,9.49-2.39,2.54-5.33,4.21-8.81,5-.42.1-.83-.24-.83-.67V.68c0-.38.3-.68.68-.68Z"/>
    </g>
  </g>
</svg>