<?xml version="1.0" encoding="UTF-8"?>
<svg id="Layer_2" data-name="Layer 2" xmlns="http://www.w3.org/2000/svg" viewBox="0 0 387.71 72">
  <g id="Layer_1-2" data-name="Layer 1">
    <g>
      <path d="M91.9,0h44.2c3.8,0,7.07,1.35,9.8,4.05,2.73,2.7,4.1,5.98,4.1,9.85v44.2c0,3.87-1.37,7.15-4.1,9.85-2.73,2.7-6,4.05-9.8,4.05h-44.2c-3.87,0-7.15-1.35-9.85-4.05-2.7-2.7-4.05-5.98-4.05-9.85V13.9c0-3.87,1.35-7.15,4.05-9.85s5.98-4.05,9.85-4.05ZM91.9,58.8h44.2c.4,0,.6-.23.6-.7V13.9c0-.47-.2-.7-.6-.7h-44.2c-.47,0-.7.23-.7.7v44.2c0,.47.23.7.7.7Z"/>
      <path d="M230,13.95v19.4c0,3.8-1.37,7.07-4.1,9.8s-6.03,4.1-9.9,4.1h-3.9l17.9,21.3v3.4h-14.4l-20.8-24.7h-23.6v24.7h-13.2V.05h58c3.87,0,7.17,1.37,9.9,4.1,2.73,2.73,4.1,6,4.1,9.8ZM171.9,34.05h44.1c.47,0,.7-.23.7-.7V13.95c0-.47-.23-.7-.7-.7h-44.1c-.47,0-.7.23-.7.7v19.4c0,.47.23.7.7.7Z"/>
      <path d="M251.84.15h43.92c3.85,0,7.14,1.34,9.86,4.03,2.72,2.69,4.09,5.96,4.09,9.81v57.86h-13.25v-24.1h-45.32v24.1h-13.14V13.99c0-3.85,1.34-7.12,4.03-9.81,2.69-2.69,5.96-4.03,9.81-4.03ZM251.15,34.6h45.32V13.99c0-.47-.23-.7-.7-.7h-43.92c-.47,0-.7.23-.7.7v20.61Z"/>
      <path d="M317.71,1.16v69.83c0,.6.52,1.07,1.12.99,4.55-.57,21.38-4.77,21.38-35.91S323.37.74,318.83.17c-.6-.07-1.12.39-1.12.99Z"/>
      <path d="M348.21,66.48V5.69c0-.62.55-1.09,1.16-.99,3.99.64,16.84,4.77,16.84,31.38s-12.85,30.74-16.84,31.38c-.61.1-1.16-.37-1.16-.99Z"/>
      <path d="M374.21,61.93V10.23c0-.64.59-1.12,1.21-.98,3.31.75,12.29,4.82,12.29,26.83s-8.97,26.08-12.29,26.83c-.62.14-1.21-.34-1.21-.98Z"/>
      <path d="M70,1.16v69.83c0,.6-.52,1.07-1.12.99-4.55-.57-21.38-4.77-21.38-35.91,0-31.14,16.83-35.34,21.38-35.91.6-.07,1.12.39,1.12.99Z"/>
      <path d="M39.5,66.48V5.69c0-.62-.55-1.09-1.16-.99-3.99.64-16.84,4.77-16.84,31.38s12.85,30.74,16.84,31.38c.61.1,1.16-.37,1.16-.99Z"/>
      <path d="M13.5,61.93V10.23c0-.64-.59-1.12-1.21-.98C8.97,10,0,14.07,0,36.08c0,22.01,8.97,26.08,12.29,26.83.62.14,1.21-.34,1.21-.98Z"/>
    </g>
  </g>
</svg>