<?xml version="1.0" encoding="UTF-8"?>
<svg id="Layer_2" data-name="Layer 2" xmlns="http://www.w3.org/2000/svg" viewBox="0 0 921.08 72">
  <defs>
    <style>
      .cls-1 {
        fill: #f7f0f1;
      }
    </style>
  </defs>
  <g id="Layer_1-2" data-name="Layer 1">
    <g>
      <path class="cls-1" d="M13.9,0h44.2c3.8,0,7.07,1.35,9.8,4.05,2.73,2.7,4.1,5.98,4.1,9.85v44.2c0,3.87-1.37,7.15-4.1,9.85-2.73,2.7-6,4.05-9.8,4.05H13.9c-3.87,0-7.15-1.35-9.85-4.05-2.7-2.7-4.05-5.98-4.05-9.85V13.9c0-3.87,1.35-7.15,4.05-9.85S10.03,0,13.9,0ZM13.9,58.8h44.2c.4,0,.6-.23.6-.7V13.9c0-.47-.2-.7-.6-.7H13.9c-.47,0-.7.23-.7.7v44.2c0,.47.23.7.7.7Z"/>
      <path class="cls-1" d="M80.68,0h12.14c.38,0,.68.3.68.68v11.66c0,3.59-1.29,6.75-3.86,9.49-2.39,2.54-5.33,4.21-8.81,5-.42.1-.83-.24-.83-.67V.68c0-.38.3-.68.68-.68Z"/>
      <path class="cls-1" d="M173.5,13.9v19.4c0,3.8-1.37,7.07-4.1,9.8s-6.03,4.1-9.9,4.1h-3.9l17.9,21.3v3.4h-14.4l-20.8-24.7h-23.6v24.7h-13.2V0h58c3.87,0,7.17,1.37,9.9,4.1,2.73,2.73,4.1,6,4.1,9.8ZM115.4,34h44.1c.47,0,.7-.23.7-.7V13.9c0-.47-.23-.7-.7-.7h-44.1c-.47,0-.7.23-.7.7v19.4c0,.47.23.7.7.7Z"/>
      <path class="cls-1" d="M195.4,0h44.2c3.8,0,7.07,1.35,9.8,4.05,2.73,2.7,4.1,5.98,4.1,9.85v44.2c0,3.87-1.37,7.15-4.1,9.85-2.73,2.7-6,4.05-9.8,4.05h-44.2c-3.87,0-7.15-1.35-9.85-4.05-2.7-2.7-4.05-5.98-4.05-9.85V13.9c0-3.87,1.35-7.15,4.05-9.85,2.7-2.7,5.98-4.05,9.85-4.05ZM195.4,58.8h44.2c.4,0,.6-.23.6-.7V13.9c0-.47-.2-.7-.6-.7h-44.2c-.47,0-.7.23-.7.7v44.2c0,.47.23.7.7.7Z"/>
      <path class="cls-1" d="M320.2,58.1V0h13.3v58.1c0,3.87-1.37,7.15-4.1,9.85-2.73,2.7-6,4.05-9.8,4.05h-44.2c-3.87,0-7.15-1.35-9.85-4.05-2.7-2.7-4.05-5.98-4.05-9.85V0h13.2v58.1c0,.47.23.7.7.7h44.2c.4,0,.6-.23.6-.7Z"/>
      <path class="cls-1" d="M413.5,13.9v19.4c0,3.8-1.37,7.07-4.1,9.8s-6.03,4.1-9.9,4.1h-3.9l17.9,21.3v3.4h-14.4l-20.8-24.7h-23.6v24.7h-13.2V0h58c3.87,0,7.17,1.37,9.9,4.1,2.73,2.73,4.1,6,4.1,9.8ZM355.4,34h44.1c.47,0,.7-.23.7-.7V13.9c0-.47-.23-.7-.7-.7h-44.1c-.47,0-.7.23-.7.7v19.4c0,.47.23.7.7.7Z"/>
      <path class="cls-1" d="M476.4,0h14.5v3.5l-27.2,32.5,27.2,32.5v3.5h-14.5l-24.6-29.4h-17v29.4h-13.3V0h13.3v29.4h17L476.4,0Z"/>
      <path class="cls-1" d="M565.1,0v13.2h-52.9v16.2h42.6v13.2h-42.6v16.2h52.9v13.2h-66.2V0h66.2Z"/>
      <path class="cls-1" d="M602.95.15h43.92c3.85,0,7.14,1.34,9.86,4.03,2.72,2.69,4.09,5.96,4.09,9.81v57.86h-13.25v-24.1h-45.32v24.1h-13.14V13.99c0-3.85,1.34-7.12,4.03-9.81,2.69-2.69,5.96-4.03,9.81-4.03ZM602.25,34.6h45.32V13.99c0-.47-.23-.7-.7-.7h-43.92c-.47,0-.7.23-.7.7v20.61Z"/>
      <path class="cls-1" d="M727.27,58.01V.15h13.25v57.86c0,3.85-1.36,7.12-4.09,9.81-2.72,2.69-5.97,4.03-9.76,4.03h-44.02c-3.85,0-7.12-1.34-9.81-4.03-2.69-2.69-4.03-5.96-4.03-9.81V.15h13.15v57.86c0,.47.23.7.7.7h44.02c.4,0,.6-.23.6-.7Z"/>
      <path class="cls-1" d="M748.52.15h57.76c3.85,0,7.14,1.34,9.86,4.03,2.72,2.69,4.09,5.96,4.09,9.81v44.02c0,3.85-1.36,7.12-4.09,9.81-2.72,2.69-6.01,4.03-9.86,4.03h-57.76V.15ZM806.98,58.01V13.99c0-.47-.23-.7-.7-.7h-43.92c-.47,0-.7.23-.7.7v44.02c0,.47.23.7.7.7h43.92c.47,0,.7-.23.7-.7Z"/>
      <path class="cls-1" d="M828.23,71.85V.15h13.15v71.71h-13.15Z"/>
      <path class="cls-1" d="M863.22.15h44.02c3.79,0,7.04,1.34,9.76,4.03,2.72,2.69,4.09,5.96,4.09,9.81v44.02c0,3.85-1.36,7.12-4.09,9.81-2.72,2.69-5.97,4.03-9.76,4.03h-44.02c-3.85,0-7.12-1.34-9.81-4.03-2.69-2.69-4.03-5.96-4.03-9.81V13.99c0-3.85,1.34-7.12,4.03-9.81,2.69-2.69,5.96-4.03,9.81-4.03ZM863.22,58.71h44.02c.4,0,.6-.23.6-.7V13.99c0-.47-.2-.7-.6-.7h-44.02c-.47,0-.7.23-.7.7v44.02c0,.47.23.7.7.7Z"/>
    </g>
  </g>
</svg>